<svg width="167" height="28" viewBox="0 0 167 28" fill="none" xmlns="http://www.w3.org/2000/svg">
<path d="M152.599 18.0444H158.022V3.73333H152.786V0H161.95V18.0444H167V21.7778H152.599V18.0444Z" fill="#FF6B9D"/>
<path d="M143.612 19.5378C143.196 20.5126 142.614 21.2074 141.866 21.6222C141.118 22.0163 140.245 22.2133 139.247 22.2133C138.312 22.2133 137.429 22.037 136.598 21.6845C135.787 21.3319 135.07 20.8133 134.447 20.1289C133.824 19.4445 133.325 18.6148 132.951 17.64C132.598 16.6652 132.421 15.5556 132.421 14.3111V13.8133C132.421 12.5896 132.598 11.4904 132.951 10.5156C133.304 9.54075 133.782 8.71112 134.385 8.02667C134.987 7.34223 135.684 6.82371 136.473 6.47112C137.284 6.09778 138.146 5.91112 139.06 5.91112C140.162 5.91112 141.045 6.09778 141.71 6.47112C142.396 6.84445 142.936 7.42519 143.331 8.21334H143.892V6.34667H147.82V17.1111C147.82 17.7333 148.1 18.0445 148.661 18.0445H149.254V21.7778H146.573C145.866 21.7778 145.284 21.5704 144.827 21.1556C144.391 20.7407 144.173 20.2015 144.173 19.5378H143.612ZM140.12 18.48C141.263 18.48 142.178 18.1067 142.863 17.36C143.549 16.5926 143.892 15.5556 143.892 14.2489V13.8756C143.892 12.5689 143.549 11.5422 142.863 10.7956C142.178 10.0282 141.263 9.64445 140.12 9.64445C138.977 9.64445 138.063 10.0282 137.377 10.7956C136.691 11.5422 136.349 12.5689 136.349 13.8756V14.2489C136.349 15.5556 136.691 16.5926 137.377 17.36C138.063 18.1067 138.977 18.48 140.12 18.48Z" fill="#FF6B9D"/>
<path d="M125.554 19.5378H124.993C124.827 19.8904 124.619 20.2326 124.369 20.5645C124.141 20.8756 123.829 21.1556 123.434 21.4045C123.06 21.6533 122.603 21.8504 122.063 21.9956C121.543 22.1407 120.909 22.2133 120.161 22.2133C119.205 22.2133 118.312 22.0474 117.48 21.7156C116.67 21.363 115.953 20.8548 115.33 20.1911C114.727 19.5067 114.249 18.677 113.896 17.7022C113.563 16.7274 113.397 15.6074 113.397 14.3422V13.7822C113.397 12.5378 113.574 11.4282 113.927 10.4533C114.301 9.47853 114.8 8.65927 115.423 7.99556C116.067 7.31112 116.805 6.7926 117.636 6.44001C118.488 6.08741 119.382 5.91112 120.317 5.91112C121.564 5.91112 122.551 6.14964 123.278 6.62667C124.006 7.08297 124.577 7.7363 124.993 8.58667H125.554V6.34667H129.482V25.5733C129.482 26.2785 129.253 26.8593 128.796 27.3156C128.359 27.7719 127.788 28 127.081 28H116.67V24.2667H124.712C125.273 24.2667 125.554 23.9556 125.554 23.3333V19.5378ZM121.439 18.48C122.665 18.48 123.652 18.0963 124.401 17.3289C125.169 16.5407 125.554 15.5141 125.554 14.2489V13.8756C125.554 12.6104 125.169 11.5941 124.401 10.8267C123.652 10.0385 122.665 9.64445 121.439 9.64445C120.213 9.64445 119.216 10.0282 118.447 10.7956C117.699 11.5422 117.325 12.5689 117.325 13.8756V14.2489C117.325 15.5556 117.699 16.5926 118.447 17.36C119.216 18.1067 120.213 18.48 121.439 18.48Z" fill="#FF6B9D"/>
<path d="M98.8926 15.3378C98.9134 15.7941 99.0173 16.2193 99.2044 16.6133C99.4122 16.9867 99.6823 17.3185 100.015 17.6089C100.368 17.8785 100.763 18.0963 101.199 18.2622C101.657 18.4074 102.134 18.48 102.633 18.48C103.61 18.48 104.358 18.3141 104.878 17.9822C105.397 17.6296 105.771 17.2148 106 16.7378L109.366 18.6045C109.179 18.9985 108.919 19.4133 108.587 19.8489C108.255 20.2637 107.818 20.6474 107.278 21C106.758 21.3526 106.114 21.643 105.345 21.8711C104.597 22.0993 103.714 22.2133 102.696 22.2133C101.532 22.2133 100.472 22.0267 99.5161 21.6533C98.5601 21.28 97.7289 20.7407 97.0223 20.0356C96.3366 19.3304 95.7963 18.4696 95.4014 17.4533C95.0274 16.437 94.8403 15.2859 94.8403 14V13.8133C94.8403 12.6311 95.0378 11.5526 95.4326 10.5778C95.8482 9.60297 96.4093 8.77334 97.1159 8.0889C97.8224 7.40445 98.6433 6.87556 99.5784 6.50223C100.534 6.10815 101.553 5.91112 102.633 5.91112C103.963 5.91112 105.106 6.14964 106.062 6.62667C107.018 7.08297 107.808 7.67408 108.431 8.40001C109.055 9.10519 109.512 9.89334 109.803 10.7645C110.094 11.6148 110.239 12.4445 110.239 13.2533V15.3378H98.8926ZM102.602 9.45778C101.605 9.45778 100.794 9.71704 100.171 10.2356C99.5472 10.7333 99.142 11.3141 98.955 11.9778H106.249C106.124 11.2519 105.73 10.6504 105.065 10.1733C104.42 9.6963 103.6 9.45778 102.602 9.45778Z" fill="#FF6B9D"/>
<path d="M76.2529 18.0444H81.6768V3.73333H76.44V0H85.6044V18.0444H90.6542V21.7778H76.2529V18.0444Z" fill="#FF6B9D"/>
<path d="M42.163 21.7778H38.2354V0H42.163V8.83556H42.7241C43.1189 7.90222 43.7008 7.18667 44.4697 6.68889C45.2386 6.17037 46.1841 5.91111 47.3063 5.91111C48.0752 5.91111 48.7817 6.03556 49.4259 6.28445C50.0702 6.53333 50.6312 6.90667 51.1092 7.40445C51.5872 7.90222 51.9612 8.54519 52.2314 9.33334C52.5015 10.1007 52.6366 11.0133 52.6366 12.0711V21.7778H48.709V13.0044C48.709 11.9052 48.4388 11.0444 47.8985 10.4222C47.379 9.77926 46.6205 9.45778 45.623 9.45778C44.4593 9.45778 43.5865 9.85185 43.0046 10.64C42.4435 11.4074 42.163 12.4444 42.163 13.7511V21.7778Z" fill="#FF6B9D"/>
<path d="M18.6499 6.34667H23.2321V0H27.1597V6.34667H32.7395V10.08H27.1597V17.1111C27.1597 17.7333 27.4403 18.0444 28.0014 18.0444H32.1784V21.7778H25.6323C24.9258 21.7778 24.3439 21.5496 23.8867 21.0933C23.4503 20.637 23.2321 20.0563 23.2321 19.3511V10.08H18.6499V6.34667Z" fill="#FF6B9D"/>
<path d="M3.92762 21.7778H0V6.34667H3.92762V8.6489H4.48871C4.84198 7.77778 5.41346 7.10371 6.20314 6.62667C6.99282 6.14964 7.91758 5.91112 8.97741 5.91112C9.72553 5.91112 10.4217 6.03556 11.0659 6.28445C11.7309 6.5126 12.3128 6.87556 12.8115 7.37334C13.3103 7.87112 13.6947 8.50371 13.9649 9.27112C14.2558 10.0385 14.4013 10.9511 14.4013 12.0089V21.7778H10.4736V13.0045C10.4736 11.9052 10.2035 11.0445 9.66319 10.4222C9.14366 9.77927 8.38515 9.45778 7.38766 9.45778C6.22392 9.45778 5.35112 9.85186 4.76925 10.64C4.20816 11.4074 3.92762 12.4445 3.92762 13.7511V21.7778Z" fill="#FF6B9D"/>
</svg>
