<svg width="178" height="100" viewBox="0 0 178 100" fill="none" xmlns="http://www.w3.org/2000/svg">
<path d="M151.344 1.75116H156.149V19.5026H173.195V1.75116H178V41.8351H173.195V23.9691H156.149V41.8351H151.344V1.75116Z" fill="#FF6B9D"/>
<path d="M115.576 1.75116H143.719V6.21765H132.05V41.8351H127.245V6.21765H115.576V1.75116Z" fill="#FF6B9D"/>
<path d="M114.427 77.3481L115.715 77.5322C113.14 91.8969 101.182 100 86.8323 100C74.5065 100 64.3884 93.5543 67.5158 73.4807L74.5065 29.6501C76.3462 18.232 75.0584 13.8122 70.2753 13.8122C64.2044 13.8122 55.5579 22.0994 46.7275 35.9116L37.1613 98.3425C25.9393 97.9742 14.9013 98.3426 3.8633 99.8158L15.0853 27.256C16.1891 19.8895 17.8448 10.6814 11.222 10.6814C7.1747 10.6814 3.12743 15.8379 1.47173 23.2044H0C2.57553 8.83978 14.5334 0.736652 28.8828 0.736652C41.2085 0.736652 51.6946 7.18232 48.0153 27.256L46.9115 33.1492C61.6288 9.76059 77.45 0 91.2475 0C107.437 0 110.748 11.4181 108.172 27.6243L100.814 73.2965C99.71 80.663 98.0543 89.8711 104.677 89.8711C108.724 89.8711 112.772 84.7146 114.427 77.3481Z" fill="#FF6B9D"/>
</svg>
